<svg width="256" height="256" viewBox="0 0 256 256" fill="none" xmlns="http://www.w3.org/2000/svg">
<rect x="2" y="2" width="252" height="252" fill="#273746"/>
<path d="M32.635 147.192C32.635 147.192 29.5563 163.804 35.9658 168.895C42.3753 173.987 48.0234 173.178 48.0234 173.178C48.0234 173.178 48.9751 180.277 68.1179 187.243C87.2608 194.21 106.056 193.258 117.176 193.144C128.297 193.03 147.587 187.786 147.587 187.786C147.587 187.786 149.462 194.752 158.841 197.831C168.219 200.909 175.59 199.844 175.052 193.011C174.515 186.178 169.818 177.736 169.818 177.736C169.818 177.736 177.184 172.911 182.666 168.358C188.147 163.804 200.395 146.074 200.395 146.074C202.939 148.253 205.973 149.784 209.236 150.538C214.594 151.746 220.418 152.541 221.741 152.417C224.51 152.146 224.244 151.075 223.169 146.788C222.552 144.268 221.615 141.837 220.38 139.555C220.38 139.555 218.244 134.73 218.101 129.905C217.958 125.08 217.625 117.895 219.086 115.35C220.547 112.804 219.9 111.957 217.658 112.495C213.904 113.389 211.672 115.221 206.581 117.767C201.49 120.313 200.509 122.14 200.509 122.14L196.227 127.055L185.107 119.328L182.023 103.52L176.789 91.1915C176.789 91.1915 169.956 80.6089 161.248 71.7679C152.54 62.9269 142.11 56.7554 119.989 55.5515C97.8671 54.3476 82.3406 59.834 71.2204 68.9462C60.1001 78.0585 54.3378 91.7244 54.3378 91.7244L47.1051 115.44L38.797 129.496L32.635 147.192Z" fill="white"/>
<path d="M222.569 145.446C221.051 143.038 220.156 138.884 219.086 133.389C218.437 129.917 218.198 126.381 218.372 122.854C217.822 121.213 217.569 119.487 217.625 117.757C217.625 116.249 215.379 116.939 212.072 118.681C207.437 121.126 201.128 125.342 198.363 129.549L191.664 124.148L184.05 119.323L172.93 118.119L161.01 116.106L159.402 137.543L140.369 149.334L137.038 124.952L129.424 88.6411L120.312 79.4004L100.751 79.6669L75.774 80.4853L62.779 104.601C53.1338 112.909 41.7471 130.724 37.7263 145.047C35.1615 154.192 34.6429 167.154 40.5385 170.099L47.105 172.512L54.4757 180.687L70.4161 187.919C70.4161 187.919 100.161 195.956 119.746 193.258C139.331 190.56 147.478 187.496 147.478 187.496C147.478 187.496 146.74 187.362 146.74 179.059C146.226 176.333 146.797 176.014 147.568 177.584C148.862 180.22 151.141 186.011 153.506 188.971C157.099 193.477 163.351 195.804 169.851 195.604C172.616 195.518 173.51 193.525 172.844 188.033C172.318 184.447 171.12 180.993 169.314 177.851C169.314 177.851 174.809 175.038 184.588 165.793C194.366 156.547 200.352 145.608 200.352 145.608C202.407 147.005 204.557 148.258 206.786 149.358C210.806 151.323 217.501 152.931 221.789 152.398C226.076 151.865 224.644 148.744 222.569 145.446ZM88.3408 110.615L93.5179 111.776C82.5356 112.314 73.057 120.888 76.5924 124.885L73.647 128.835C73.647 128.835 67.8799 122.273 74.9698 115.302L88.3408 110.615ZM97.0914 152.06C88.16 155.629 77.9771 150.271 74.7652 143.305C71.5534 136.339 76.0119 124.015 82.4452 120.974C91.4861 116.692 100.308 117.044 105.847 127.583C111.385 138.123 106.009 148.487 97.0771 152.06H97.0914Z" fill="#C7C7C7"/>
<path d="M222.569 145.446C221.051 143.038 220.156 138.884 219.086 133.389C218.437 129.917 218.198 126.381 218.372 122.854C217.822 121.213 217.569 119.487 217.625 117.757C217.625 116.249 215.379 116.939 212.072 118.681C207.437 121.126 201.128 125.342 198.363 129.549L191.664 124.148L184.05 119.323L172.93 118.119L161.01 116.106L159.402 137.543L140.369 149.334L137.038 124.952L129.424 88.6411L120.312 79.4004L100.751 79.6669L75.774 80.4853L62.779 104.601C53.1338 112.909 41.7471 130.724 37.7263 145.047C35.1615 154.192 34.6429 167.154 40.5385 170.099L47.105 172.512L54.4757 180.687L70.4161 187.919C70.4161 187.919 100.161 195.956 119.746 193.258C139.331 190.56 147.478 187.496 147.478 187.496C147.478 187.496 146.74 187.362 146.74 179.059C146.226 176.333 146.797 176.014 147.568 177.584C148.862 180.22 151.141 186.011 153.506 188.971C157.099 193.477 163.351 195.804 169.851 195.604C172.616 195.518 173.51 193.525 172.844 188.033C172.318 184.447 171.12 180.993 169.314 177.851C169.314 177.851 174.809 175.038 184.588 165.793C194.366 156.547 200.352 145.608 200.352 145.608C202.407 147.005 204.557 148.258 206.786 149.358C210.806 151.323 217.501 152.931 221.789 152.398C226.076 151.865 224.644 148.744 222.569 145.446ZM88.3408 110.615L93.5179 111.776C82.5356 112.314 73.057 120.888 76.5924 124.885L73.647 128.835C73.647 128.835 67.8799 122.273 74.9698 115.302L88.3408 110.615ZM97.0914 152.06C88.16 155.629 77.9771 150.271 74.7652 143.305C71.5534 136.339 76.0119 124.015 82.4452 120.974C91.4861 116.692 100.308 117.044 105.847 127.583C111.385 138.123 106.009 148.487 97.0771 152.06H97.0914Z" fill="url(#paint0_linear)"/>
<path d="M139.593 139.555L131.028 96.6826L163.708 75.251C163.708 75.251 171.569 80.961 175.128 86.8613C178.688 92.7617 183.879 108.117 183.879 108.117L164.95 116.33L158.16 118.652L149.409 140.983L139.593 139.555Z" fill="#6DA5DA"/>
<path d="M63.3167 77.5684C63.3167 77.5684 67.5992 69.5269 80.2849 62.7415C92.9707 55.956 112.608 53.4532 130.481 56.489C148.353 59.5248 160.316 71.1352 160.316 71.1352L145.845 87.0328L97.0771 77.5684L63.1216 78.8199L63.3167 77.5684Z" fill="#6DA5DA"/>
<g style="mix-blend-mode:multiply" opacity="0.3">
<path d="M220.404 139.555L218.458 130.448L218.596 121.673L217.387 120.455C213.971 131.109 211.829 134.792 208.822 134.73C205.715 134.663 203.731 128.368 198.439 125.418C197.634 125.892 196.719 126.147 195.784 126.156L184.697 120.26L167.905 118.476L161.386 117.314L165.136 143.928L140.392 157.775L138.161 134.283L136.552 116.601L130.928 95.2358L121.549 79.2477L114.226 82.7356L102.078 76.2119L84.4724 81.2129L74.4798 76.9304L52.5106 105.79C52.5106 105.79 47.1479 112.266 47.0623 117.21C51.635 112.252 63.3406 108.645 77.2492 107.317C78.2865 107.217 78.5863 107.479 78.2009 107.855C77.6346 108.388 76.6972 108.621 75.4553 110.163C74.2134 111.704 73.8137 113.046 73.9612 115.425L83.8728 110.867L98.7902 111.314L106.204 115.064L112.171 119.027C110.61 114.854 108.397 112.175 104.381 109.83C102.378 108.664 102.035 107.955 103.777 108.088C109.388 108.596 114.919 109.765 120.255 111.571C123.277 112.585 126.017 113.717 127.626 117.866C129.458 122.625 131.908 131.133 131.518 146.616C131.452 149.219 130.305 149.314 128.706 148.877C122.263 147.121 117.1 148.781 114.226 152.612C115.531 152.651 116.831 152.792 118.114 153.035C124.409 154.111 129.501 158.465 127.826 165.883C127.526 167.206 125.851 168.628 126.251 166.088L124.052 160.011C124.052 160.011 120.479 164.746 112.632 168.229C104.786 171.712 76.6401 173.939 76.6401 173.939L48.8609 174.386L51.4495 177.512C73.5139 180.819 94.4126 178.497 109.282 175.323C123.343 172.326 128.459 173.225 122.415 181.086C115.045 190.664 102.43 192.473 90.663 190.864C92.5378 192.206 102.273 193.324 114.597 192.963C126.922 192.601 147.021 187.514 147.021 187.514L146.036 180.995C145.189 174.519 146.012 171.631 152.155 173.049C162.623 175.457 169.395 182.694 173.058 193.143L173.534 187.157L169.87 177.422C169.87 177.422 178.178 172.321 184.697 165.902C188.959 161.606 192.872 156.977 196.398 152.06L201.447 143.019C206.267 146.635 215.336 148.915 219.8 148.824C221.498 148.791 222.655 148.51 221.874 146.921C221.674 144.746 220.404 139.555 220.404 139.555Z" fill="#273746"/>
</g>
<g style="mix-blend-mode:multiply" opacity="0.3">
<path d="M155.4 169.295C161.386 166.526 173.891 169.652 176.394 172.512L169.87 177.422L161.305 171.441L155.4 169.295Z" fill="#273746"/>
</g>
<g style="mix-blend-mode:multiply" opacity="0.3">
<path d="M90.4677 117.124C103.596 114.355 114.007 126.003 113.308 138.028C112.684 149.191 103.353 158.284 91.8286 157.765C79.9042 157.228 73.2045 149.2 73.4757 139.141C73.4757 139.141 73.2045 145.17 81.3793 149.457C81.3793 149.457 86.3375 155.757 96.3824 151.736C106.427 147.716 108.25 141.963 108.04 134.606C107.798 125.085 98.2381 119.68 90.4677 117.124Z" fill="#273746"/>
</g>
<g style="mix-blend-mode:multiply" opacity="0.3">
<path d="M143.1 162.129C161.857 157.156 185.992 140.802 190.997 124.014L184.697 120.26L161.381 117.314C161.381 117.314 140.445 148.934 141.22 152.75C141.777 155.509 142.095 158.311 142.172 161.125C142.163 161.952 142.296 162.328 143.1 162.129Z" fill="#273746"/>
</g>
<g style="mix-blend-mode:multiply" opacity="0.5">
<path d="M92.7042 119.166C94.7036 120.102 96.4676 121.474 97.866 123.182C99.2644 124.89 100.262 126.891 100.784 129.035C101.306 131.18 101.341 133.415 100.885 135.575C100.428 137.735 99.4931 139.765 98.1479 141.515C96.8027 143.265 95.0818 144.692 93.1121 145.688C91.1424 146.685 88.974 147.227 86.767 147.274C84.5599 147.321 82.3705 146.872 80.36 145.96C78.3495 145.049 76.5693 143.697 75.1506 142.006C76.2261 144.806 78.0282 147.269 80.3716 149.142C82.715 151.015 85.5149 152.229 88.4834 152.66C91.4519 153.092 94.4817 152.724 97.261 151.596C100.04 150.468 102.469 148.619 104.297 146.241C106.125 143.862 107.286 141.04 107.661 138.064C108.036 135.088 107.611 132.065 106.431 129.308C105.25 126.55 103.356 124.157 100.943 122.375C98.5308 120.592 95.6869 119.485 92.7042 119.166V119.166Z" fill="#6DA5DA"/>
</g>
<path d="M83.159 109.683C78.5624 110.829 74.004 113.213 71.1489 117.096C68.037 121.331 68.6603 126.794 72.8953 129.601C70.6303 136.496 72.2434 144.138 77.6108 149.282C80.4341 151.957 84.0009 153.715 87.8423 154.325C91.6838 154.935 95.6198 154.368 99.1328 152.698C102.614 151.002 105.489 148.278 107.371 144.894C109.253 141.511 110.049 137.63 109.653 133.779C108.783 125.88 102.816 119.347 95.1405 117.486C86.8325 115.478 78.3388 119.466 74.1753 126.708C70.9729 123.948 72.9857 119.29 76.1214 116.606C79.0859 114.065 82.9116 112.69 86.7373 112.143C94.7932 110.986 103.82 113.38 110.781 118.971C112.29 120.184 113.446 120.151 112.104 118.495C105.38 110.073 93.4037 107.132 83.159 109.683ZM76.5354 129.392C80.1898 121.688 89.1878 117.791 97.1628 121.369C104.981 124.876 108.511 134.388 105.038 142.182C101.564 149.976 92.2427 153.726 84.4105 150.209C76.4688 146.626 73.2283 137.267 76.5354 129.392V129.392ZM92.4616 132.965C95.8543 134.902 99.6943 134.559 101.027 132.199C102.359 129.839 100.717 126.361 97.3246 124.424C93.9319 122.487 90.0919 122.83 88.7596 125.185C87.4273 127.541 89.0689 131.029 92.4616 132.965V132.965ZM129.182 153.612C125.123 150.333 120.564 149.976 114.94 151.765C112.865 152.422 112.994 153.326 115.045 153.217C118.994 153.007 123.529 153.145 126.779 155.639C130.666 158.622 131.732 163.985 131.642 168.486C131.604 170.39 132.689 170.551 133.241 168.71C134.63 164.042 133.764 157.314 129.182 153.612ZM224.077 144.69C221.051 137.29 219.376 129.939 220.104 121.916C220.323 119.485 220.742 117.058 220.961 114.636C221.07 113.432 221.051 112.09 220.214 111.396C218.858 110.277 215.098 111.624 213.224 112.39C206.7 115.05 200.309 119.156 195.894 124.762C192.941 122.362 189.792 120.213 186.482 118.338C186.525 118.043 186.563 117.748 186.586 117.453C186.807 114.506 186.484 111.543 185.635 108.712C184.428 104.186 182.864 99.7624 180.957 95.4837C174.448 81.0135 163.623 68.8369 149.329 61.7422C134.906 54.5809 118.147 52.7014 102.297 54.8188C87.2274 56.8269 73.1712 63.5504 63.1835 75.1608C53.1957 86.7711 47.8949 101.422 44.9638 116.244C40.6952 122.258 37.1151 128.732 34.2908 135.544C30.4461 145.061 27.5911 157.48 32.9537 167.002C35.4994 171.517 40.8526 173.506 46.3675 174.472C48.6753 178.607 52.6342 181.224 56.8359 183.618C61.1782 186.023 65.7744 187.938 70.5399 189.328C83.5064 193.31 97.3341 194.786 110.867 194.586C122.958 194.41 135.258 192.858 146.926 189.437C147.726 190.953 148.714 192.361 149.866 193.629C153.492 197.674 158.545 199.853 163.851 200.634C168.781 201.362 175.78 201.647 175.975 195.057C176.137 189.589 175.347 184.46 172.535 178.964C172.378 178.664 172.211 178.384 172.059 178.098C182.017 171.991 190.5 163.758 196.903 153.988C198.231 151.99 199.456 149.926 200.571 147.802C205.529 151.166 211.729 152.836 217.582 153.388C219.728 153.593 224.082 153.945 225.405 152.517C227.08 150.666 224.905 146.674 224.077 144.69ZM219.167 140.322C219.643 141.663 220.118 142.986 220.632 144.3C214.799 144.509 208.127 143.767 203.093 140.869C203.223 140.24 203.315 139.605 203.369 138.965C208.351 139.674 213.614 139.18 218.524 138.242C218.72 138.951 218.938 139.636 219.167 140.322V140.322ZM203.412 137.053C203.376 136.25 203.258 135.452 203.06 134.673C207.403 132.314 212.098 130.667 216.964 129.796C217.156 132 217.511 134.187 218.025 136.339C213.309 137.257 208.194 137.781 203.412 137.053V137.053ZM164.689 78.7914C175.585 87.4563 180.186 103.844 180.186 103.844C173.668 97.1443 167.082 96.0118 167.082 96.0118C169.49 104.986 167.948 112.152 167.948 112.152C161.919 104.648 156.338 103.444 156.338 103.444C156.338 103.444 157.994 115.526 153.483 124.567C153.483 124.567 148.529 115.35 141.425 111.11C141.425 111.11 143.837 127.602 140.883 137C140.883 137 140.354 119.266 133.926 101.788C133.926 101.788 145.313 105.881 151.965 115.278C151.965 115.278 153.977 108.222 150.537 96.9683C159.335 98.1103 164.113 102.773 164.113 102.773C163.803 97.6868 161.391 90.987 161.391 90.987C168.181 91.3867 172.421 94.4654 172.421 94.4654C170.36 86.3381 164.689 78.7914 164.689 78.7914ZM103.896 57.1695C119.703 55.3851 140.973 57.474 155.89 69.3556C148.062 65.8392 139.803 63.3751 131.328 62.0277C143.385 68.461 146.155 78.3727 146.155 78.3727C133.307 63.6218 121.145 60.7668 121.145 60.7668C127.935 67.1049 129.677 77.6922 129.677 77.6922C121.369 63.0888 113.289 60.6764 113.289 60.6764C114.003 64.4259 112.261 68.9131 112.261 68.9131C109.982 62.8176 107.212 61.1237 107.212 61.1237C95.288 63.5361 83.7395 75.6223 83.7395 75.6223C87.8983 67.1239 98.1383 60.586 98.1383 60.586C82.1407 64.1833 65.3533 77.0974 65.3533 77.0974C65.3533 77.0974 77.8249 60.1244 103.896 57.1695ZM197.212 147.193C191.216 158.893 181.443 168.767 170.275 175.662C166.468 171.241 160.787 169.328 156.504 169C154.358 168.843 153.83 169.566 155.847 170.256C161.738 172.26 167.268 175.524 170.123 181.286C171.282 183.752 172.022 186.394 172.311 189.104C172.583 191.364 173.672 196.356 171.174 197.564C168.676 198.773 164.227 197.76 161.657 197.089C159.069 196.48 156.637 195.334 154.52 193.724C149.7 189.918 147.592 183.884 146.597 178.022C146.274 176.119 145.079 176.295 144.922 178.307C144.642 181.096 144.914 183.913 145.722 186.596C124.138 193.001 99.956 193.092 79.1668 188.457C73.4139 187.172 67.6801 185.493 62.3222 183.013C58.1825 181.11 53.4384 178.731 50.5358 175.024C52.8864 175.262 55.1466 175.376 57.0976 175.5C69.4693 176.252 81.9789 175.448 94.2555 173.915C104.548 172.631 115.958 170.661 123.662 163.124C124.085 164.048 124.438 165.002 124.718 165.979C125.294 167.858 126.146 167.858 126.336 165.898C126.574 163.485 126.017 160.345 124.875 159.136C123.529 157.709 120.564 157.475 117.557 158.146C115.482 158.622 115.582 159.488 117.7 159.893C118.938 160.08 120.156 160.386 121.335 160.806C115.173 166.83 106.356 169.043 98.0669 170.299C87.1124 171.953 76.0464 172.756 64.9679 172.702C59.5454 172.75 54.1272 172.383 48.7609 171.603C45.1208 171.022 40.8764 170.271 37.8501 168.001C35.095 165.936 34.0434 161.815 33.658 158.556C33.0108 153.321 33.8293 148.03 35.2663 143C37.5931 134.849 41.6234 127.25 46.2961 120.213C48.6753 116.63 51.2924 112.014 54.9325 109.221C58.487 106.49 63.2691 105.038 67.5897 104.21C68.0989 104.111 68.2178 104.001 68.3273 103.473C69.9498 95.7739 72.9999 89.0837 78.0819 83.4879C75.3696 89.4977 73.295 95.7787 72.7049 102.345C72.6336 103.164 72.8429 103.425 73.5995 103.349C80.8428 102.72 88.1193 102.561 95.3832 102.873C96.0065 102.897 96.1208 102.764 96.2254 102.083C97.3341 94.7366 98.5475 89.1836 101.074 82.2602C101.973 88.8817 102.326 95.5659 102.131 102.245C102.102 103.197 102.131 103.325 102.978 103.406C109.815 104.077 117.885 105.076 124.547 106.832C125.461 107.075 125.713 107.018 125.627 105.923C125.074 98.529 123.759 91.2115 121.702 84.0874C127.578 92.5716 130.424 103.121 132.765 113.056C136.224 127.707 138.023 143.705 138.308 158.736C138.308 159.717 138.575 159.85 139.522 159.526C148.915 156.324 160.301 150.167 167.315 144.024C167.739 143.652 167.867 143.443 167.791 142.677C167.629 140.298 167.158 136.772 166.839 134.421C166.142 129.386 165.048 124.414 163.566 119.551C167.133 125.453 169.759 131.875 171.35 138.585C171.617 139.732 171.75 140.012 172.564 139.218C176.922 135.078 183.184 128.573 185.597 121.769C185.647 121.607 185.7 121.436 185.754 121.255C188.783 123.065 191.648 125.134 194.319 127.441C196.945 129.763 199.934 132.822 200.338 136.482C200.742 140.141 198.796 144.095 197.212 147.193ZM200.033 129.02C199.452 128.284 198.833 127.579 198.178 126.908C201.509 122.554 206.058 119.233 210.916 116.734C217.834 113.18 218.191 113.879 217.796 115.911C217.568 117.087 217.392 118.29 217.244 119.466C211.016 121.245 204.654 124.353 200.033 129.02ZM202.065 129.972C203.104 129.028 204.197 128.146 205.339 127.331C208.9 124.8 212.844 122.856 217.021 121.574L216.992 121.845C216.812 123.827 216.764 125.819 216.849 127.807C211.798 128.673 206.916 130.333 202.384 132.727C202.317 132.58 202.251 132.432 202.179 132.285C201.904 131.752 201.594 131.233 201.275 130.729C201.528 130.486 201.785 130.234 202.065 129.972ZM218.8 150.623C212.976 150.148 206.605 148.634 201.766 145.127C202.08 144.361 202.365 143.581 202.608 142.801C208.104 145.76 215.703 146.607 221.432 146.227C221.684 146.821 221.936 147.411 222.193 148.002C223.192 150.314 223.15 150.985 218.791 150.638L218.8 150.623Z" fill="black"/>
<defs>
<linearGradient id="paint0_linear" x1="58.6249" y1="104.263" x2="203.193" y2="187.729" gradientUnits="userSpaceOnUse">
<stop stop-color="#6DA5DA" stop-opacity="0"/>
<stop offset="0.1" stop-color="#6DA5DA" stop-opacity="0.04"/>
<stop offset="0.25" stop-color="#6DA5DA" stop-opacity="0.15"/>
<stop offset="0.45" stop-color="#6DA5DA" stop-opacity="0.34"/>
<stop offset="0.68" stop-color="#6DA5DA" stop-opacity="0.59"/>
<stop offset="0.93" stop-color="#6DA5DA" stop-opacity="0.91"/>
<stop offset="1" stop-color="#6DA5DA"/>
</linearGradient>
</defs>
</svg>
